<?xml version="1.0" encoding="UTF-8"?>
<svg width="19px" height="19px" viewBox="0 0 19 19" version="1.1" xmlns="http://www.w3.org/2000/svg" xmlns:xlink="http://www.w3.org/1999/xlink">
    <!-- Generator: Sketch 50.2 (55047) - http://www.bohemiancoding.com/sketch -->
    <title>Fill 1</title>
    <desc>Created with Sketch.</desc>
    <defs></defs>
    <g id="Page-1" stroke="none" stroke-width="1" fill="none" fill-rule="evenodd">
        <g id="verkefni-copy-4" transform="translate(-981.000000, -25.000000)" fill="#FFDA1A">
            <path d="M999.552189,39.2020188 C999.850732,39.5005622 1000,39.8630745 1000,40.289563 C1000,40.7160511 999.850732,41.0785617 999.552189,41.377104 L997.377107,43.5521885 C997.078564,43.850731 996.716052,44 996.289563,44 C995.863075,44 995.500562,43.850731 995.202022,43.5521885 L990.500002,38.8501679 L985.797981,43.5521885 C985.499438,43.850731 985.136929,44 984.710437,44 C984.283949,44 983.921438,43.850731 983.622896,43.5521885 L981.447811,41.377104 C981.149269,41.0785617 981,40.7160511 981,40.289563 C981,39.8630745 981.149269,39.5005622 981.447811,39.2020188 L986.149832,34.4999982 L981.447811,29.7979776 C981.149269,29.4994378 981,29.1369255 981,28.710437 C981,28.2839485 981.149269,27.9214361 981.447811,27.6228928 L983.622896,25.4478115 C983.921438,25.1492681 984.283949,25 984.710437,25 C985.136929,25 985.499438,25.1492681 985.797981,25.4478115 L990.500002,30.1498321 L995.202022,25.4478115 C995.500562,25.1492681 995.863075,25 996.289563,25 C996.716052,25 997.078564,25.1492681 997.377107,25.4478115 L999.552189,27.6228928 C999.850732,27.9214361 1000,28.2839485 1000,28.710437 C1000,29.1369255 999.850732,29.4994378 999.552189,29.7979776 L994.850168,34.4999982 L999.552189,39.2020188 Z" id="Fill-1"></path>
        </g>
    </g>
</svg>