<?xml version="1.0" encoding="UTF-8"?>
<svg width="75px" height="75px" viewBox="0 0 75 75" version="1.1" xmlns="http://www.w3.org/2000/svg" xmlns:xlink="http://www.w3.org/1999/xlink">
    <!-- Generator: Sketch 50.2 (55047) - http://www.bohemiancoding.com/sketch -->
    <title>Group 5</title>
    <desc>Created with Sketch.</desc>
    <defs></defs>
    <g id="Page-1" stroke="none" stroke-width="1" fill="none" fill-rule="evenodd">
        <g id="forsíða-copy" transform="translate(-784.000000, -402.000000)">
            <g id="Group-5" transform="translate(788.000000, 406.000000)">
                <circle id="Oval" stroke-opacity="0.61" stroke="#FFFFFF" stroke-width="7" cx="33.5" cy="33.5" r="33.5"></circle>
                <path d="M47,21.1249989 L47,45.875 C47,46.1796892 46.8911451,46.4433584 46.6734353,46.6660156 C46.4557294,46.888673 46.197918,47 45.9000012,47 L37.0999988,47 C36.802082,47 36.5442706,46.888673 36.3265608,46.6660156 C36.1088549,46.4433584 36,46.1796892 36,45.875 L36,21.1249989 C36,20.8203112 36.1088549,20.5566404 36.3265608,20.3339866 C36.5442706,20.1113289 36.802082,20 37.0999988,20 L45.9000012,20 C46.197918,20 46.4557294,20.1113289 46.6734353,20.3339866 C46.8911451,20.5566404 47,20.8203112 47,21.1249989 Z M31,21.1249989 L31,45.875 C31,46.1796892 30.8911451,46.4433584 30.6734353,46.6660156 C30.4557294,46.888673 30.197918,47 29.9000012,47 L21.1,47 C20.8020816,47 20.5442718,46.888673 20.3265625,46.6660156 C20.1088531,46.4433584 20,46.1796892 20,45.875 L20,21.1249989 C20,20.8203112 20.1088531,20.5566404 20.3265625,20.3339866 C20.5442718,20.1113289 20.8020816,20 21.1,20 L29.9000012,20 C30.197918,20 30.4557294,20.1113289 30.6734353,20.3339866 C30.8911451,20.5566404 31,20.8203112 31,21.1249989 Z" id="Fill-1" fill-opacity="0.61" fill="#FFFFFF"></path>
            </g>
        </g>
    </g>
</svg>