<?xml version="1.0" encoding="UTF-8"?>
<svg width="73px" height="73px" viewBox="0 0 73 73" version="1.1" xmlns="http://www.w3.org/2000/svg" xmlns:xlink="http://www.w3.org/1999/xlink">
    <!-- Generator: Sketch 50.2 (55047) - http://www.bohemiancoding.com/sketch -->
    <title>Page 1</title>
    <desc>Created with Sketch.</desc>
    <defs></defs>
    <g id="Page-1" stroke="none" stroke-width="1" fill="none" fill-rule="evenodd" fill-opacity="0.609999955">
        <g id="forsíða-copy-4" transform="translate(-785.000000, -304.000000)" fill="#FFFFFF">
            <path d="M821.499995,304 C816.415395,304 811.668115,304.95882 807.257996,306.876469 C802.795997,308.742294 798.917749,311.333676 795.623132,314.650696 C792.328519,317.967717 789.721403,321.828878 787.801706,326.2343 C785.933893,330.691537 785,335.433771 785,340.461131 C785,345.540316 785.933893,350.28255 787.801706,354.687962 C789.721403,359.145209 792.328519,363.019327 795.623132,366.310435 C798.917749,369.601544 802.795997,372.205884 807.257996,374.123536 C811.668115,376.041188 816.415395,377 821.499995,377 C826.584605,377 831.331885,376.041188 835.742004,374.123536 C840.204003,372.205884 844.082251,369.601544 847.376868,366.310435 C850.671485,363.019327 853.2786,359.145209 855.198294,354.687962 C857.066108,350.28255 858,345.540316 858,340.461131 C858,335.433771 857.066108,330.691537 855.198294,326.2343 C853.2786,321.828878 850.671485,317.967717 847.376868,314.650696 C844.082251,311.333676 840.204003,308.742294 835.742004,306.876469 C831.331885,304.95882 826.584605,304 821.499995,304 Z M821.499995,370.314164 C817.349307,370.314164 813.458088,369.53675 809.826231,367.981896 C806.194364,366.427041 803.029507,364.302112 800.331552,361.60703 C797.633606,358.911948 795.506402,355.750462 793.949893,352.122472 C792.393382,348.494483 791.615139,344.607409 791.615139,340.461131 C791.615139,336.314854 792.393382,332.42778 793.949893,328.79979 C795.506402,325.171801 797.633606,322.010315 800.331552,319.315233 C803.029507,316.620151 806.194364,314.495222 809.826231,312.940366 C813.458088,311.385511 817.349307,310.608098 821.499995,310.608098 C825.650693,310.608098 829.541912,311.385511 833.173779,312.940366 C836.805636,314.495222 839.970493,316.620151 842.668439,319.315233 C845.366394,322.010315 847.493598,325.171801 849.050112,328.79979 C850.606615,332.42778 851.384856,336.314854 851.384856,340.461131 C851.384856,344.607409 850.606615,348.494483 849.050112,352.122472 C847.493598,355.750462 845.366394,358.911948 842.668439,361.60703 C839.970493,364.302112 836.805636,366.427041 833.173779,367.981896 C829.541912,369.53675 825.650693,370.314164 821.499995,370.314164 Z M836.753726,337.817894 L816.830485,324.601708 C816.363534,324.238904 815.818763,324.057517 815.196162,324.057517 C814.573561,324.057517 814.02879,324.238904 813.561839,324.601708 C812.887347,324.757192 812.381486,325.068161 812.044246,325.534615 C811.706995,326.001068 811.538375,326.571172 811.538375,327.244945 L811.538375,353.755055 C811.538375,354.428828 811.694025,355.011888 812.005335,355.504264 C812.316636,355.99663 812.705757,356.398292 813.172708,356.709272 C813.535899,356.916581 813.821249,357.033197 814.02878,357.059109 C814.23632,357.085022 814.521671,357.097978 814.884861,357.097978 C815.196162,357.097978 815.520433,357.020241 815.857673,356.864746 C816.194924,356.709262 816.519185,356.553787 816.830485,356.398302 L836.753726,343.104369 C837.272567,342.7934 837.622778,342.404693 837.804369,341.93823 C837.985969,341.471776 838.076759,340.97942 838.076759,340.461131 C838.076759,339.994678 837.947049,339.528224 837.687628,339.06177 C837.428218,338.595317 837.116917,338.180698 836.753726,337.817894 Z" id="Page-1"></path>
        </g>
    </g>
</svg>